<svg viewBox="0 0 1003.9 207.2" xmlns="http://www.w3.org/2000/svg" xmlns:xlink="http://www.w3.org/1999/xlink"><linearGradient id="a" gradientUnits="userSpaceOnUse" x1="222.9" x2="295.2" y1="166.2" y2="41.3"><stop offset=".2" stop-color="#2665ac"/><stop offset=".8" stop-color="#6ec6db"/></linearGradient><linearGradient id="b" gradientUnits="userSpaceOnUse" x1="92" x2="166.1" y1="166.4" y2="41"><stop offset=".3" stop-color="#e04f6f"/><stop offset=".8" stop-color="#ef7b48"/></linearGradient><g fill="#374c95"><path d="m532.5 65.1-44.2 110.4-30.2-76.6-29.7 76.6-44.7-110.5h14.7l29.6 74.8 30.2-77.1 29.9 77.1 29.8-74.8h14.6z"/><path d="m659.1 171.3h-16.1l-11.6-27.2h-44l-11.8 27.1h-16l49.6-110.8 49.9 110.8zm-33.2-39.3-16.8-39.1-16.7 39.1z"/><path d="m776.9 65.1-46 111.8-46.8-111.8h14.4l32 76.6 31.4-76.6h15.1z"/><path d="m884.6 171.3h-57.7v-106.2h57.7v12.1h-43.7v30.4h42.3v12.1h-42.3v39.5h43.7z"/><path d="m1003.9 139.9c0 9.7-3.4 17.8-10.3 24.1-6.9 6.4-15.4 9.6-25.5 9.6s-13.4-1.8-19.9-5.5c-2.5-1.4-6.7-4.4-12.6-9l8-11.1c5.6 4.2 9.6 7.1 12 8.5 4.6 2.5 9.2 3.8 13.8 3.8s10.5-1.8 14.3-5.3c3.7-3.5 5.6-8 5.6-13.4s-2.4-9.3-7.1-12.8c-2.4-1.7-7-3.9-13.8-6.5l-7.6-2.9c-7.1-2.7-12.3-6.1-15.6-10-3.8-4.6-5.8-10.5-5.8-17.9s3-15.6 9-20.9 13.3-8 21.9-8 11.3.8 15.8 2.5 8.7 4.4 12.7 8.1l-7.9 10.8c-2.7-3.1-6-5.5-9.9-7.2-3.8-1.7-7.6-2.5-11.4-2.5s-8.1 1.6-11.2 4.9-4.6 7.1-4.6 11.3 1.3 7.4 3.8 10.2c2 2.1 4.8 3.9 8.3 5.3l7.7 3c12.4 4.8 20.7 9.6 24.7 14.4 3.5 4.4 5.3 9.8 5.3 16.2z"/></g><path d="m334.8 37.4c0-20.7-16.7-37.4-37.4-37.4s-24.8 6.9-31.5 17.2c-.2.3-.4.7-.6 1 0 .1-.1.2-.2.4-.2.3-.3.6-.5.9-.9 1.6-1.6 3.2-2.2 4.9-1 2.7-1.7 5.6-2 8.5-2.5 16.7 1.2 37.4-13.8 63.4-14.9 25.7-34.8 33.2-47.9 43.5-1.7 1.2-3.2 2.6-4.6 4.1-2.1 2.2-4 4.5-5.5 7.2 0 .1-.1.3-.2.4-3 5.4-4.8 11.6-4.8 18.3 0 20.7 16.7 37.4 37.4 37.4s34.7-14.2 37.1-32.5c3-17.4-1.7-37.2 13.7-63.8 16.1-27.7 36.6-32.8 50.2-45.3 7.9-6.9 12.9-17 12.9-28.2z" fill="url(#a)"/><path d="m204.8 37.4c0-20.7-16.7-37.4-37.4-37.4s-24.8 6.9-31.5 17.2c-.2.3-.4.7-.6 1 0 .1-.1.2-.2.4-.2.3-.3.6-.5.9-.9 1.6-1.6 3.2-2.2 4.9-1 2.7-1.7 5.6-2 8.5-2.5 16.7 1.2 37.4-13.8 63.4-14.9 25.7-34.8 33.2-47.9 43.5-1.7 1.2-3.2 2.6-4.6 4.1-2.1 2.2-4 4.5-5.5 7.2 0 .1-.1.3-.2.4-3 5.4-4.8 11.6-4.8 18.3 0 20.7 16.7 37.4 37.4 37.4s34.7-14.2 37.1-32.5c3-17.4-1.7-37.2 13.7-63.8 16.1-27.7 36.6-32.8 50.2-45.3 7.9-6.9 12.9-17 12.9-28.2z" fill="url(#b)"/><circle cx="37.4" cy="37.4" fill="#f2be61" r="37.4"/></svg>